<?xml version="1.0" encoding="UTF-8" standalone="no"?>
<!-- Created with Inkscape (http://www.inkscape.org/) -->

<svg
   xmlns:dc="http://purl.org/dc/elements/1.1/"
   xmlns:cc="http://creativecommons.org/ns#"
   xmlns:rdf="http://www.w3.org/1999/02/22-rdf-syntax-ns#"
   xmlns:svg="http://www.w3.org/2000/svg"
   xmlns="http://www.w3.org/2000/svg"
   xmlns:sodipodi="http://sodipodi.sourceforge.net/DTD/sodipodi-0.dtd"
   xmlns:inkscape="http://www.inkscape.org/namespaces/inkscape"
   width="32.861629mm"
   height="5.3385248mm"
   viewBox="0 0 33 5"
   preserveAspectRatio="xMinYMid meet"
   version="1.1"
   id="svg5155"
   inkscape:version="0.92.2 2405546, 2018-03-11"
   sodipodi:docname="separator-1.svg"
   inkscape:export-filename="/home/will/willprice.github.com/media/separator/separator-1.png"
   inkscape:export-xdpi="462.48392"
   inkscape:export-ydpi="462.48392">
  <defs
     id="defs5149" />
  <sodipodi:namedview
     id="base"
     pagecolor="#ffffff"
     bordercolor="#666666"
     borderopacity="1.0"
     inkscape:pageopacity="0.0"
     inkscape:pageshadow="2"
     inkscape:zoom="21.937053"
     inkscape:cx="52.20745"
     inkscape:cy="4.0244753"
     inkscape:document-units="mm"
     inkscape:current-layer="layer1"
     showgrid="true"
     fit-margin-top="0"
     fit-margin-left="0"
     fit-margin-right="0"
     fit-margin-bottom="0"
     borderlayer="false"
     showborder="true">
    <inkscape:grid
       type="xygrid"
       id="grid4534"
       originx="-8.55258"
       originy="-0.22113528" />
  </sodipodi:namedview>
  <metadata
     id="metadata5152">
    <rdf:RDF>
      <cc:Work
         rdf:about="">
        <dc:format>image/svg+xml</dc:format>
        <dc:type
           rdf:resource="http://purl.org/dc/dcmitype/StillImage" />
        <dc:title />
      </cc:Work>
    </rdf:RDF>
  </metadata>
  <g
     inkscape:label="Layer 1"
     inkscape:groupmode="layer"
     id="layer1"
     transform="translate(-34.631808,-166.13818)">
    <g
       id="g7017"
       transform="translate(-0.2453475,-0.25353134)">
      <g
         style="stroke-width:3.05149031"
         transform="matrix(0.11560836,0,0,-0.11560836,50.868831,171.04399)"
         id="g172">
        <path
           inkscape:connector-curvature="0"
           id="path174"
           style="fill:#1e120d;fill-opacity:1;fill-rule:nonzero;stroke:none;stroke-width:3.05149031"
           d="M 0,0 4.097,-4.475 8.195,0 4.097,9.493 Z" />
      </g>
      <g
         style="stroke-width:3.05149031"
         transform="matrix(0.11560836,0,0,-0.11560836,61.396605,168.26501)"
         id="g176">
        <path
           inkscape:connector-curvature="0"
           id="path178"
           style="fill:#000000;fill-opacity:1;fill-rule:nonzero;stroke:none;stroke-width:3.05149031"
           d="M 0,0 C 0,0 -0.248,0.172 -0.729,0.504 -0.97,0.669 -1.269,0.875 -1.624,1.119 -1.993,1.34 -2.421,1.595 -2.905,1.885 -3.881,2.447 -5.129,3.065 -6.63,3.696 -8.153,4.28 -9.924,4.888 -11.961,5.374 -16.038,6.323 -21.152,6.763 -26.959,6.301 -32.787,5.856 -39.193,4.4 -46.13,2.412 c -6.932,-1.967 -14.418,-4.465 -22.685,-6.025 -2.064,-0.391 -4.172,-0.724 -6.338,-0.96 -2.172,-0.225 -4.443,-0.333 -6.774,-0.022 -2.324,0.31 -4.709,1.068 -6.771,2.55 -2.045,1.467 -3.687,3.605 -4.456,6.115 -0.787,2.484 -0.661,5.394 0.661,7.824 0.639,1.216 1.561,2.271 2.609,3.123 0.535,0.411 1.089,0.798 1.676,1.109 l 0.476,0.255 0.394,0.185 c 0.235,0.119 0.621,0.265 0.925,0.389 2.481,0.952 5.333,1.04 7.875,0.378 2.561,-0.646 4.833,-1.888 6.894,-3.288 1.032,-0.706 2.017,-1.46 2.967,-2.24 l 1.387,-1.171 1.381,-1.217 c 1.807,-1.623 3.554,-3.298 5.284,-4.976 3.457,-3.357 6.858,-6.731 10.48,-9.77 3.6,-3.051 7.457,-5.753 11.655,-7.557 2.094,-0.908 4.276,-1.545 6.492,-1.915 2.214,-0.346 4.498,-0.496 6.615,-0.204 2.121,0.291 4.118,1.019 5.473,2.34 1.199,1.15 1.848,3.286 1.177,4.551 -0.33,0.742 -0.971,1.44 -1.561,1.719 -0.295,0.142 -0.542,0.18 -0.766,0.15 -0.11,-0.015 -0.237,-0.048 -0.347,-0.108 -0.039,-0.017 -0.159,-0.098 -0.222,-0.172 -0.074,-0.078 -0.135,-0.171 -0.173,-0.261 -0.02,-0.043 -0.035,-0.096 -0.043,-0.127 -0.022,-0.096 -0.017,-0.092 -0.017,-0.092 -0.001,-0.015 -0.007,-0.05 -0.007,-0.078 -0.015,-0.232 0.056,-0.556 0.216,-0.865 0.009,-0.017 0.068,-0.126 0.035,-0.067 l 0.115,-0.18 c 0.071,-0.105 0.163,-0.273 0.217,-0.327 0.114,-0.139 0.217,-0.286 0.388,-0.459 0.302,-0.333 0.663,-0.642 1.057,-0.929 1.579,-1.162 3.629,-1.937 5.675,-2.736 2.005,-0.775 4.014,-1.36 6.029,-1.646 1.987,-0.276 4.062,-0.265 5.797,0.276 1.788,0.547 3.451,1.586 4.338,2.974 0.443,0.69 0.684,1.454 0.705,2.255 0.031,0.731 -0.217,1.477 -0.648,1.995 -0.411,0.511 -1.093,0.843 -1.59,0.793 -0.254,-0.018 -0.482,-0.114 -0.62,-0.238 -0.142,-0.129 -0.177,-0.231 -0.174,-0.341 -0.029,-0.239 0.457,-0.816 1.223,-1.139 0.594,-0.271 1.509,-0.457 2.358,-0.523 1.74,-0.151 3.603,-0.003 5.425,0.003 7.117,0.14 13.54,1.726 19.071,3.63 5.646,1.831 10.833,2.686 15.109,2.546 2.136,-0.058 4.031,-0.348 5.633,-0.758 1.602,-0.402 2.936,-0.863 3.961,-1.361 1.029,-0.484 1.775,-0.934 2.268,-1.248 0.487,-0.325 0.738,-0.492 0.738,-0.492 0,0 -0.26,0.153 -0.763,0.45 -0.508,0.286 -1.275,0.693 -2.319,1.116 -2.075,0.842 -5.347,1.638 -9.524,1.613 -4.181,-0.034 -9.212,-1.075 -14.674,-3.096 -5.478,-2.149 -12.048,-4.071 -19.435,-4.4 -1.794,-0.055 -3.624,-0.269 -5.646,-0.161 -1.023,0.072 -2.016,0.174 -3.19,0.662 -0.167,0.065 -0.233,0.112 -0.353,0.168 l -0.161,0.081 c -0.161,0.089 -0.154,0.093 -0.24,0.144 -0.254,0.152 -0.507,0.346 -0.749,0.567 -0.476,0.44 -0.951,1.098 -1.052,1.963 -0.11,0.866 0.278,1.763 0.859,2.299 0.581,0.554 1.319,0.842 2.05,0.914 0.734,0.066 1.455,-0.091 2.074,-0.379 0.152,-0.072 0.362,-0.186 0.472,-0.255 l 0.159,-0.1 0.129,-0.088 0.102,-0.076 c 0.273,-0.205 0.523,-0.437 0.74,-0.693 0.877,-1.019 1.313,-2.324 1.301,-3.634 0.001,-1.246 -0.373,-2.525 -1.032,-3.591 -1.344,-2.151 -3.488,-3.452 -5.716,-4.204 -0.571,-0.186 -1.131,-0.33 -1.753,-0.441 -0.553,-0.096 -1.184,-0.164 -1.749,-0.193 -1.168,-0.07 -2.337,-0.022 -3.49,0.117 -2.307,0.27 -4.561,0.898 -6.706,1.702 -2.084,0.797 -4.316,1.554 -6.429,3.043 -0.524,0.372 -1.036,0.795 -1.506,1.295 -0.231,0.23 -0.475,0.532 -0.71,0.844 -0.128,0.165 -0.169,0.251 -0.258,0.38 l -0.117,0.179 c -0.114,0.178 -0.116,0.198 -0.177,0.305 -0.367,0.698 -0.617,1.511 -0.59,2.426 0.003,0.115 0.013,0.222 0.027,0.349 0.018,0.145 0.044,0.289 0.054,0.332 0.051,0.249 0.119,0.471 0.21,0.693 0.179,0.44 0.433,0.838 0.745,1.184 0.322,0.352 0.663,0.631 1.135,0.878 0.399,0.209 0.831,0.346 1.289,0.419 0.92,0.149 1.856,-0.042 2.602,-0.396 1.5,-0.735 2.473,-1.89 3.136,-3.24 0.328,-0.695 0.549,-1.456 0.587,-2.284 0.041,-0.766 -0.046,-1.521 -0.229,-2.236 -0.381,-1.446 -1.077,-2.69 -2.17,-3.807 -2.053,-1.987 -4.76,-2.896 -7.306,-3.26 -1.28,-0.176 -2.598,-0.242 -3.852,-0.179 -0.631,0.025 -1.263,0.045 -1.892,0.122 -0.632,0.053 -1.26,0.132 -1.885,0.243 -2.501,0.406 -4.959,1.118 -7.28,2.112 -4.657,1.982 -8.8,4.878 -12.558,8.046 -3.76,3.183 -7.2,6.631 -10.625,9.982 -1.712,1.676 -3.422,3.328 -5.166,4.908 l -1.303,1.16 -1.343,1.143 c -0.888,0.736 -1.793,1.433 -2.719,2.072 -1.849,1.274 -3.809,2.315 -5.821,2.842 -2.007,0.538 -4.051,0.491 -5.941,-0.195 -1.919,-0.691 -3.544,-1.886 -4.43,-3.524 -0.911,-1.617 -1.049,-3.621 -0.501,-5.444 0.533,-1.835 1.735,-3.463 3.279,-4.601 1.546,-1.137 3.46,-1.824 5.433,-2.128 3.983,-0.586 8.228,0.083 12.251,0.704 8.076,1.372 15.58,3.623 22.623,5.398 3.519,0.895 6.927,1.683 10.208,2.243 1.647,0.266 3.241,0.511 4.826,0.669 1.564,0.177 3.085,0.271 4.577,0.343 5.939,0.233 11.135,-0.427 15.24,-1.559 2.054,-0.572 3.827,-1.27 5.329,-1.951 C -4.979,3.353 -3.759,2.664 -2.807,2.044 -2.336,1.727 -1.92,1.447 -1.561,1.206 -1.22,0.942 -0.932,0.721 -0.701,0.543 -0.239,0.185 0,0 0,0" />
      </g>
      <g
         style="stroke-width:3.05149031"
         transform="matrix(0.11560836,0,0,-0.11560836,54.157624,169.55445)"
         id="g180">
        <path
           inkscape:connector-curvature="0"
           id="path182"
           style="fill:#000000;fill-opacity:1;fill-rule:nonzero;stroke:none;stroke-width:3.05149031"
           d="m 0,0 c 0,0 0.073,-0.163 0.213,-0.479 0.114,-0.355 0.272,-0.895 0.179,-1.625 -0.081,-0.724 -0.489,-1.612 -1.329,-2.307 -0.836,-0.689 -2.11,-1.127 -3.536,-0.938 -0.708,0.104 -1.442,0.373 -2.094,0.839 -0.326,0.232 -0.633,0.508 -0.91,0.826 -0.144,0.175 -0.254,0.295 -0.405,0.542 l -0.292,0.473 c -0.889,1.67 -0.838,3.745 0.122,5.546 0.47,0.896 1.161,1.717 2.057,2.356 0.449,0.314 0.939,0.603 1.487,0.789 0.154,0.051 0.232,0.095 0.45,0.15 l 0.347,0.087 C -3.509,6.322 -3.16,6.365 -2.869,6.41 -0.575,6.708 1.937,5.839 3.685,4.042 4.115,3.59 4.512,3.097 4.844,2.555 4.934,2.424 5.006,2.282 5.083,2.142 L 5.197,1.932 5.253,1.826 C 5.276,1.777 5.242,1.86 5.312,1.703 L 5.332,1.656 5.652,0.893 C 6.127,-0.433 6.271,-1.71 6.179,-3.042 5.977,-5.685 4.721,-8.231 2.743,-10.138 c -0.988,-0.94 -2.223,-1.736 -3.508,-2.227 -0.298,-0.117 -0.568,-0.231 -0.897,-0.335 l -1.019,-0.294 c -0.682,-0.177 -1.345,-0.297 -2.031,-0.385 -2.736,-0.337 -5.585,0.056 -8.164,1.135 -2.595,1.049 -4.897,2.783 -6.768,4.896 -1.821,2.149 -3.261,4.73 -3.748,7.599 -0.526,2.841 -0.107,5.897 1.223,8.521 0.618,1.343 1.465,2.545 2.425,3.684 0.244,0.272 0.45,0.52 0.724,0.811 l 0.711,0.778 c 0.479,0.528 0.976,1.071 1.545,1.58 0.558,0.51 1.217,0.996 1.938,1.34 0.824,0.367 1.609,0.541 2.517,0.521 0.876,-0.026 1.937,-0.381 2.616,-1.231 0.146,-0.199 0.317,-0.446 0.407,-0.656 0.135,-0.304 0.197,-0.535 0.24,-0.817 0.076,-0.54 0.014,-1.083 -0.167,-1.575 -0.091,-0.245 -0.209,-0.48 -0.352,-0.699 L -9.62,12.427 c -0.042,-0.055 0.015,0.008 -0.109,-0.143 L -9.814,12.183 -9.985,11.98 c -0.081,-0.117 -0.31,-0.319 -0.498,-0.483 -0.199,-0.185 -0.391,-0.301 -0.586,-0.423 -0.785,-0.485 -1.68,-0.732 -2.553,-0.784 -1.748,-0.088 -3.475,0.478 -4.806,1.707 -0.325,0.316 -0.624,0.666 -0.877,1.062 l -0.05,0.072 -0.079,0.146 -0.059,0.116 -0.118,0.234 c -0.078,0.149 -0.158,0.297 -0.242,0.552 l -0.231,0.688 -0.124,0.638 c -0.082,0.426 -0.087,0.856 -0.093,1.279 0.044,1.698 0.598,3.261 1.411,4.604 0.806,1.356 1.897,2.513 3.235,3.415 l 0.522,0.316 0.066,0.039 c -0.063,-0.028 0.156,0.08 0.156,0.08 l 0.115,0.053 0.23,0.105 0.918,0.42 c 0.156,0.068 0.295,0.142 0.466,0.206 l 0.566,0.176 1.138,0.337 c 2.967,0.758 6.025,0.247 8.615,-0.767 2.62,-1.017 4.845,-2.557 6.78,-4.223 1.936,-1.673 3.625,-3.471 5.103,-5.319 0.702,-0.912 1.392,-1.809 2.069,-2.689 0.669,-0.846 1.35,-1.653 2.045,-2.412 2.824,-3.041 5.742,-5.541 8.515,-7.48 2.76,-1.969 5.454,-3.21 7.74,-4.001 2.298,-0.78 4.22,-0.984 5.528,-1.025 0.655,-0.028 1.157,0.032 1.499,0.034 0.342,0.014 0.518,0.021 0.518,0.021 l 0.049,-0.294 c 0,0 -0.177,-0.031 -0.519,-0.091 -0.344,-0.047 -0.852,-0.176 -1.527,-0.236 -1.347,-0.118 -3.369,-0.111 -5.867,0.446 -2.49,0.556 -5.414,1.71 -8.459,3.521 -3.071,1.771 -6.26,4.228 -9.4,7.269 -0.776,0.782 -1.534,1.609 -2.275,2.472 -0.709,0.849 -1.432,1.713 -2.167,2.593 -1.464,1.677 -3.055,3.341 -4.854,4.814 -1.798,1.465 -3.785,2.774 -5.941,3.638 -2.15,0.844 -4.506,1.211 -6.755,0.721 l -0.788,-0.205 -0.4,-0.096 c -0.144,-0.048 -0.306,-0.126 -0.458,-0.188 l -0.928,-0.395 -0.233,-0.099 -0.116,-0.049 c -0.042,-0.018 0.145,0.068 0.046,0.02 l -0.044,-0.026 -0.35,-0.198 c -0.917,-0.583 -1.781,-1.423 -2.394,-2.411 -0.635,-0.978 -1.038,-2.095 -1.095,-3.176 0.001,-0.266 -0.011,-0.537 0.036,-0.793 l 0.06,-0.388 c 0.035,-0.1 0.065,-0.201 0.09,-0.305 0.002,-0.137 0.314,-0.706 0.334,-0.769 0.115,-0.2 0.26,-0.389 0.426,-0.571 0.683,-0.723 1.815,-1.175 2.871,-1.161 1.066,-0.004 2.03,0.539 2.429,1.295 0.321,0.674 -0.079,1.416 -1.148,1.545 -0.51,0.062 -1.154,-0.037 -1.641,-0.213 -0.58,-0.227 -1.105,-0.554 -1.626,-0.964 -0.517,-0.408 -1.013,-0.884 -1.519,-1.377 l -0.775,-0.749 c -0.226,-0.211 -0.494,-0.492 -0.739,-0.734 -0.926,-0.973 -1.804,-2.056 -2.438,-3.255 -0.632,-1.199 -1.133,-2.481 -1.344,-3.821 -0.215,-1.337 -0.198,-2.704 0.027,-4.034 0.45,-2.669 1.829,-5.122 3.644,-7.043 1.825,-1.928 4.125,-3.334 6.536,-4.106 2.408,-0.794 4.937,-0.938 7.265,-0.475 0.575,0.117 1.164,0.271 1.695,0.453 l 0.786,0.285 c 0.266,0.1 0.563,0.261 0.845,0.379 1.038,0.449 1.89,1.062 2.644,1.828 1.507,1.507 2.434,3.507 2.613,5.443 0.099,0.955 -0.033,1.966 -0.279,2.738 L 2.946,0.68 2.82,0.924 C 2.767,1.024 2.72,1.128 2.656,1.221 2.428,1.612 2.151,1.965 1.856,2.292 0.665,3.598 -1.043,4.268 -2.62,4.131 -2.809,4.103 -2.945,4.118 -3.206,4.053 L -3.557,3.98 C -3.571,3.981 -3.712,3.93 -3.783,3.909 -4.139,3.813 -4.473,3.643 -4.789,3.452 -5.419,3.063 -5.952,2.516 -6.323,1.901 -7.092,0.687 -7.172,-0.828 -6.75,-1.869 c 0.525,-1.256 1.488,-1.963 2.517,-2.253 1.032,-0.257 2.064,-0.045 2.772,0.419 0.719,0.467 1.116,1.136 1.268,1.715 0.301,1.189 -0.131,1.881 -0.087,1.885 z" />
      </g>
      <g
         style="stroke-width:3.05149031"
         transform="matrix(0.11560836,0,0,-0.11560836,41.288448,168.26501)"
         id="g184">
        <path
           inkscape:connector-curvature="0"
           id="path186"
           style="fill:#000000;fill-opacity:1;fill-rule:nonzero;stroke:none;stroke-width:3.05149031"
           d="m 0,0 c 0,0 0.239,0.185 0.701,0.543 0.231,0.178 0.519,0.399 0.861,0.663 0.358,0.241 0.774,0.521 1.245,0.838 0.952,0.62 2.173,1.309 3.659,2.031 1.502,0.681 3.275,1.379 5.329,1.951 4.105,1.132 9.301,1.792 15.24,1.559 1.492,-0.072 3.013,-0.166 4.577,-0.343 1.585,-0.158 3.18,-0.403 4.826,-0.669 3.281,-0.56 6.689,-1.348 10.208,-2.243 7.043,-1.775 14.547,-4.026 22.623,-5.398 4.023,-0.621 8.268,-1.29 12.251,-0.704 1.974,0.304 3.887,0.991 5.433,2.128 1.545,1.138 2.746,2.766 3.279,4.601 0.548,1.823 0.41,3.827 -0.501,5.444 -0.886,1.638 -2.511,2.833 -4.43,3.524 -1.89,0.686 -3.933,0.733 -5.941,0.195 C 77.348,13.593 75.388,12.552 73.539,11.278 72.613,10.639 71.709,9.942 70.82,9.206 L 69.477,8.063 68.174,6.903 C 66.43,5.323 64.72,3.671 63.008,1.995 59.584,-1.356 56.143,-4.804 52.383,-7.987 c -3.758,-3.168 -7.9,-6.064 -12.558,-8.046 -2.321,-0.994 -4.779,-1.706 -7.28,-2.112 -0.625,-0.111 -1.253,-0.19 -1.885,-0.243 -0.629,-0.077 -1.261,-0.097 -1.892,-0.122 -1.254,-0.063 -2.572,0.003 -3.852,0.179 -2.545,0.364 -5.253,1.273 -7.306,3.26 -1.093,1.117 -1.788,2.361 -2.17,3.807 -0.183,0.715 -0.27,1.47 -0.229,2.236 0.038,0.828 0.259,1.589 0.587,2.284 0.663,1.35 1.636,2.505 3.136,3.24 0.746,0.354 1.683,0.545 2.602,0.396 0.458,-0.073 0.89,-0.21 1.289,-0.419 0.472,-0.247 0.813,-0.526 1.135,-0.878 0.312,-0.346 0.566,-0.744 0.745,-1.184 0.091,-0.222 0.159,-0.444 0.21,-0.693 0.011,-0.043 0.036,-0.187 0.055,-0.332 0.013,-0.127 0.023,-0.234 0.026,-0.349 0.027,-0.915 -0.223,-1.728 -0.59,-2.426 -0.061,-0.107 -0.063,-0.127 -0.177,-0.305 l -0.116,-0.179 c -0.09,-0.129 -0.131,-0.215 -0.259,-0.38 -0.234,-0.312 -0.479,-0.614 -0.71,-0.844 -0.47,-0.5 -0.982,-0.923 -1.506,-1.295 -2.113,-1.489 -4.345,-2.246 -6.428,-3.043 -2.145,-0.804 -4.4,-1.432 -6.707,-1.702 -1.153,-0.139 -2.322,-0.187 -3.49,-0.117 -0.565,0.029 -1.195,0.097 -1.749,0.193 -0.622,0.111 -1.182,0.255 -1.753,0.441 -2.228,0.752 -4.372,2.053 -5.716,4.204 -0.658,1.066 -1.033,2.345 -1.032,3.591 -0.012,1.31 0.424,2.615 1.301,3.634 0.217,0.256 0.468,0.488 0.74,0.693 l 0.102,0.076 0.13,0.088 0.158,0.1 c 0.11,0.069 0.321,0.183 0.473,0.255 0.618,0.288 1.339,0.445 2.073,0.379 C 0.471,-3.672 1.21,-3.96 1.79,-4.514 2.371,-5.05 2.759,-5.947 2.649,-6.813 2.548,-7.678 2.073,-8.336 1.597,-8.776 1.355,-8.997 1.103,-9.191 0.848,-9.343 0.762,-9.394 0.769,-9.398 0.608,-9.487 L 0.447,-9.568 c -0.12,-0.056 -0.186,-0.103 -0.353,-0.168 -1.174,-0.488 -2.166,-0.59 -3.19,-0.662 -2.022,-0.108 -3.852,0.106 -5.646,0.161 -7.387,0.329 -13.957,2.251 -19.435,4.4 -5.462,2.021 -10.493,3.062 -14.674,3.096 -4.177,0.025 -7.449,-0.771 -9.524,-1.613 -1.043,-0.423 -1.81,-0.83 -2.319,-1.116 -0.503,-0.297 -0.763,-0.45 -0.763,-0.45 0,0 0.251,0.167 0.738,0.492 0.494,0.314 1.239,0.764 2.268,1.248 1.025,0.498 2.359,0.959 3.961,1.361 1.602,0.41 3.497,0.7 5.633,0.758 4.276,0.14 9.464,-0.715 15.109,-2.546 5.531,-1.904 11.954,-3.49 19.071,-3.63 1.822,-0.006 3.685,-0.154 5.425,-0.003 0.849,0.066 1.764,0.252 2.358,0.523 0.766,0.323 1.252,0.9 1.223,1.139 0.003,0.11 -0.032,0.212 -0.174,0.341 -0.138,0.124 -0.366,0.22 -0.62,0.238 -0.497,0.05 -1.179,-0.282 -1.59,-0.793 -0.431,-0.518 -0.679,-1.264 -0.648,-1.995 0.021,-0.801 0.262,-1.565 0.705,-2.255 0.887,-1.388 2.55,-2.427 4.338,-2.974 1.735,-0.541 3.81,-0.552 5.797,-0.276 2.015,0.286 4.024,0.871 6.029,1.646 2.046,0.799 4.096,1.574 5.676,2.736 0.394,0.287 0.754,0.596 1.056,0.929 0.171,0.173 0.274,0.32 0.388,0.459 0.054,0.054 0.146,0.222 0.218,0.327 l 0.114,0.18 c -0.033,-0.059 0.026,0.05 0.035,0.067 0.16,0.309 0.231,0.633 0.216,0.865 0,0.028 -0.006,0.063 -0.007,0.078 0,0 0.005,-0.004 -0.017,0.092 -0.007,0.031 -0.022,0.084 -0.043,0.127 -0.038,0.09 -0.099,0.183 -0.173,0.261 -0.063,0.074 -0.183,0.155 -0.222,0.172 -0.11,0.06 -0.237,0.093 -0.347,0.108 -0.224,0.03 -0.471,-0.008 -0.766,-0.15 -0.59,-0.279 -1.231,-0.977 -1.561,-1.719 -0.671,-1.265 -0.022,-3.401 1.177,-4.551 1.356,-1.321 3.352,-2.049 5.474,-2.34 2.116,-0.292 4.4,-0.142 6.614,0.204 2.216,0.37 4.398,1.007 6.492,1.915 4.198,1.804 8.055,4.506 11.655,7.557 3.622,3.039 7.023,6.413 10.48,9.77 1.73,1.678 3.477,3.353 5.284,4.976 l 1.381,1.217 1.387,1.171 c 0.95,0.78 1.935,1.534 2.967,2.24 2.061,1.4 4.334,2.642 6.894,3.288 2.542,0.662 5.394,0.574 7.875,-0.378 0.304,-0.124 0.69,-0.27 0.925,-0.389 l 0.394,-0.185 0.476,-0.255 c 0.587,-0.311 1.142,-0.698 1.676,-1.109 1.048,-0.852 1.97,-1.907 2.609,-3.123 1.322,-2.43 1.448,-5.34 0.661,-7.824 -0.769,-2.51 -2.411,-4.648 -4.456,-6.115 -2.062,-1.482 -4.447,-2.24 -6.771,-2.55 -2.331,-0.311 -4.602,-0.203 -6.774,0.022 -2.166,0.236 -4.274,0.569 -6.338,0.96 C 60.548,-2.053 53.062,0.445 46.13,2.412 39.193,4.4 32.787,5.856 26.959,6.301 21.152,6.763 16.038,6.323 11.961,5.374 9.924,4.888 8.153,4.28 6.631,3.696 5.129,3.065 3.881,2.447 2.905,1.885 2.421,1.595 1.993,1.34 1.624,1.119 1.269,0.875 0.97,0.669 0.729,0.504 0.248,0.172 0,0 0,0" />
      </g>
      <g
         style="stroke-width:3.05149031"
         transform="matrix(0.11560836,0,0,-0.11560836,48.559786,169.56635)"
         id="g188">
        <path
           inkscape:connector-curvature="0"
           id="path190"
           style="fill:#000000;fill-opacity:1;fill-rule:nonzero;stroke:none;stroke-width:3.05149031"
           d="M 0,0 C 0.045,-0.004 -0.388,-0.696 -0.086,-1.885 0.065,-2.464 0.462,-3.133 1.182,-3.6 1.889,-4.064 2.921,-4.276 3.954,-4.019 4.982,-3.729 5.945,-3.022 6.47,-1.766 6.892,-0.725 6.812,0.79 6.043,2.004 5.672,2.619 5.139,3.166 4.509,3.555 4.193,3.746 3.859,3.916 3.503,4.012 3.432,4.033 3.291,4.084 3.277,4.083 L 2.926,4.156 C 2.665,4.221 2.53,4.206 2.341,4.234 0.764,4.371 -0.944,3.701 -2.135,2.395 -2.431,2.068 -2.708,1.715 -2.935,1.324 -3,1.231 -3.047,1.127 -3.099,1.027 L -3.225,0.783 -3.531,0.015 c -0.245,-0.772 -0.378,-1.783 -0.278,-2.738 0.178,-1.937 1.105,-3.936 2.612,-5.443 0.754,-0.766 1.607,-1.379 2.644,-1.828 0.282,-0.118 0.579,-0.28 0.846,-0.379 l 0.785,-0.286 c 0.531,-0.181 1.12,-0.335 1.695,-0.452 2.328,-0.463 4.857,-0.319 7.266,0.475 2.41,0.772 4.711,2.178 6.535,4.106 1.815,1.921 3.194,4.374 3.644,7.043 0.225,1.33 0.242,2.697 0.027,4.034 -0.211,1.34 -0.712,2.622 -1.344,3.82 -0.634,1.2 -1.512,2.283 -2.438,3.256 -0.245,0.242 -0.513,0.523 -0.739,0.734 l -0.775,0.749 c -0.506,0.493 -1.002,0.969 -1.519,1.376 -0.521,0.411 -1.046,0.738 -1.626,0.965 -0.487,0.175 -1.131,0.275 -1.641,0.213 -1.069,-0.129 -1.468,-0.871 -1.148,-1.545 0.399,-0.756 1.363,-1.299 2.429,-1.295 1.056,-0.014 2.188,0.438 2.872,1.16 0.165,0.183 0.311,0.372 0.425,0.572 0.02,0.063 0.332,0.632 0.334,0.769 0.025,0.104 0.055,0.205 0.09,0.305 l 0.06,0.387 c 0.047,0.256 0.035,0.528 0.036,0.794 -0.056,1.081 -0.46,2.198 -1.094,3.176 -0.614,0.987 -1.478,1.828 -2.395,2.411 l -0.35,0.198 -0.044,0.025 c -0.099,0.049 0.088,-0.037 0.046,-0.019 l -0.116,0.049 -0.233,0.099 -0.928,0.395 c -0.152,0.062 -0.314,0.14 -0.458,0.188 L 11.29,23.425 10.501,23.63 C 8.253,24.12 5.896,23.752 3.746,22.909 1.59,22.045 -0.397,20.736 -2.195,19.271 c -1.799,-1.473 -3.39,-3.137 -4.854,-4.814 -0.735,-0.88 -1.458,-1.744 -2.167,-2.593 -0.741,-0.863 -1.498,-1.69 -2.275,-2.472 -3.14,-3.041 -6.328,-5.498 -9.399,-7.269 -3.046,-1.811 -5.97,-2.965 -8.46,-3.521 -2.497,-0.557 -4.519,-0.564 -5.867,-0.446 -0.675,0.06 -1.183,0.189 -1.527,0.236 -0.342,0.06 -0.519,0.091 -0.519,0.091 l 0.049,0.294 c 0,0 0.177,-0.007 0.518,-0.021 0.342,-0.002 0.844,-0.062 1.499,-0.034 1.308,0.041 3.23,0.245 5.528,1.025 2.286,0.79 4.98,2.032 7.74,4.001 2.773,1.939 5.691,4.439 8.515,7.48 0.695,0.759 1.376,1.565 2.045,2.412 0.677,0.88 1.368,1.777 2.07,2.689 1.477,1.848 3.167,3.645 5.102,5.319 1.935,1.666 4.16,3.206 6.78,4.223 2.59,1.014 5.648,1.525 8.615,0.767 l 1.138,-0.337 0.566,-0.176 c 0.171,-0.064 0.31,-0.138 0.467,-0.207 l 0.917,-0.419 0.23,-0.105 0.115,-0.053 c 0,0 0.219,-0.108 0.156,-0.08 l 0.066,-0.039 0.523,-0.316 c 1.337,-0.902 2.429,-2.059 3.234,-3.415 0.813,-1.343 1.367,-2.906 1.411,-4.604 -0.006,-0.423 -0.011,-0.853 -0.093,-1.279 L 19.805,14.97 19.573,14.282 C 19.489,14.027 19.409,13.879 19.332,13.73 L 19.214,13.496 19.154,13.38 19.075,13.234 19.026,13.162 C 18.773,12.766 18.473,12.416 18.148,12.1 16.817,10.871 15.09,10.305 13.343,10.393 c -0.874,0.052 -1.769,0.299 -2.554,0.784 -0.195,0.121 -0.387,0.238 -0.586,0.423 -0.188,0.164 -0.417,0.366 -0.498,0.483 L 9.534,12.286 9.449,12.387 C 9.325,12.538 9.383,12.475 9.341,12.53 l -0.055,0.081 c -0.143,0.219 -0.262,0.453 -0.353,0.699 -0.18,0.492 -0.243,1.035 -0.167,1.575 0.043,0.282 0.105,0.513 0.24,0.817 0.09,0.21 0.261,0.457 0.407,0.655 0.68,0.851 1.74,1.206 2.616,1.232 0.908,0.02 1.694,-0.155 2.517,-0.521 0.721,-0.344 1.381,-0.83 1.938,-1.34 0.569,-0.509 1.066,-1.052 1.546,-1.58 l 0.71,-0.778 c 0.275,-0.292 0.48,-0.539 0.724,-0.811 0.961,-1.139 1.807,-2.341 2.426,-3.684 1.329,-2.624 1.748,-5.68 1.222,-8.521 -0.487,-2.869 -1.927,-5.45 -3.747,-7.599 -1.871,-2.113 -4.174,-3.847 -6.769,-4.896 -2.579,-1.079 -5.428,-1.472 -8.164,-1.135 -0.686,0.088 -1.349,0.208 -2.031,0.385 l -1.018,0.294 c -0.33,0.104 -0.6,0.218 -0.898,0.335 -1.285,0.491 -2.52,1.287 -3.508,2.227 -1.978,1.907 -3.234,4.453 -3.435,7.096 -0.093,1.332 0.052,2.609 0.526,3.935 l 0.32,0.762 0.02,0.048 c 0.071,0.157 0.036,0.074 0.059,0.123 l 0.057,0.105 0.113,0.211 c 0.077,0.14 0.149,0.282 0.239,0.413 0.332,0.542 0.729,1.035 1.159,1.487 1.748,1.797 4.26,2.666 6.554,2.368 C 2.88,6.468 3.229,6.424 3.431,6.362 L 3.778,6.275 C 3.996,6.22 4.074,6.176 4.228,6.125 4.776,5.939 5.266,5.65 5.716,5.336 6.611,4.697 7.302,3.876 7.773,2.98 8.732,1.179 8.783,-0.896 7.894,-2.566 L 7.602,-3.039 C 7.451,-3.286 7.341,-3.406 7.197,-3.581 6.92,-3.899 6.613,-4.175 6.287,-4.407 5.635,-4.873 4.901,-5.142 4.193,-5.246 c -1.425,-0.189 -2.7,0.249 -3.535,0.938 -0.841,0.695 -1.249,1.583 -1.33,2.307 -0.093,0.73 0.065,1.27 0.179,1.624 0.141,0.317 0.213,0.48 0.213,0.48 z" />
      </g>
    </g>
  </g>
</svg>
